<svg width="720" height="420" viewBox="0 0 720 420" fill="none" xmlns="http://www.w3.org/2000/svg">
  <defs>
    <linearGradient id="bg" x1="80" y1="30" x2="650" y2="390" gradientUnits="userSpaceOnUse">
      <stop stop-color="#D9EFE7"/>
      <stop offset="1" stop-color="#F6FAF8"/>
    </linearGradient>
    <linearGradient id="card" x1="246" y1="114" x2="545" y2="299" gradientUnits="userSpaceOnUse">
      <stop stop-color="#154B45"/>
      <stop offset="1" stop-color="#0D2B28"/>
    </linearGradient>
    <filter id="shadow" x="167" y="80" width="424" height="269" filterUnits="userSpaceOnUse" color-interpolation-filters="sRGB">
      <feDropShadow dx="0" dy="18" stdDeviation="18" flood-color="#0D2B28" flood-opacity="0.18"/>
    </filter>
  </defs>
  <rect width="720" height="420" rx="42" fill="url(#bg)"/>
  <circle cx="107" cy="101" r="58" fill="#CBE5DC"/>
  <circle cx="629" cy="319" r="72" fill="#E6F3EE"/>
  <path d="M55 332C136 277 170 284 221 323" stroke="#A9CFC2" stroke-width="4" stroke-linecap="round"/>
  <path d="M535 72C592 88 623 115 652 161" stroke="#A9CFC2" stroke-width="4" stroke-linecap="round"/>
  <g filter="url(#shadow)">
    <rect x="195" y="108" width="330" height="205" rx="28" fill="url(#card)"/>
  </g>
  <circle cx="240" cy="153" r="18" fill="#8ED8C3" fill-opacity="0.9"/>
  <circle cx="264" cy="153" r="18" fill="#CDEBDD" fill-opacity="0.8"/>
  <rect x="232" y="205" width="118" height="13" rx="6.5" fill="#DDF4EC" fill-opacity="0.92"/>
  <rect x="232" y="229" width="177" height="10" rx="5" fill="#92B9AD" fill-opacity="0.7"/>
  <rect x="232" y="270" width="92" height="12" rx="6" fill="#FFFFFF" fill-opacity="0.96"/>
  <rect x="423" y="139" width="67" height="48" rx="11" fill="#EAF3EE" fill-opacity="0.96"/>
  <rect x="435" y="151" width="18" height="24" rx="4" fill="#5D8C74"/>
  <rect x="458" y="151" width="20" height="8" rx="4" fill="#9CC9B8"/>
  <rect x="458" y="167" width="13" height="8" rx="4" fill="#9CC9B8"/>
  <rect x="101" y="171" width="142" height="104" rx="22" fill="#FFFFFF"/>
  <rect x="123" y="194" width="49" height="49" rx="14" fill="#E7F3EF"/>
  <path d="M138 219H157M147.5 209.5V228.5" stroke="#154B45" stroke-width="4" stroke-linecap="round"/>
  <rect x="185" y="195" width="35" height="9" rx="4.5" fill="#9AB7AE"/>
  <rect x="185" y="214" width="24" height="8" rx="4" fill="#C3D6D0"/>
  <rect x="123" y="255" width="96" height="7" rx="3.5" fill="#D8E4E0"/>
  <rect x="486" y="236" width="137" height="105" rx="22" fill="#FFFFFF"/>
  <circle cx="519" cy="271" r="18" fill="#E6F4EC"/>
  <path d="M519 261V281M509 271H529" stroke="#217A4B" stroke-width="4" stroke-linecap="round"/>
  <rect x="551" y="257" width="47" height="9" rx="4.5" fill="#9AB7AE"/>
  <rect x="551" y="276" width="35" height="8" rx="4" fill="#C3D6D0"/>
  <rect x="509" y="310" width="89" height="7" rx="3.5" fill="#D8E4E0"/>
</svg>